# xmcd CD database file
#
# Track frame offsets:
#	300
#	20559
#	40143
#	54566
#	71768
#	106174
#	132275
#
# Disc length: 2081 seconds
#
# Revision: 0
# Processed by: cddbd v1.5.1PL0 Copyright (c) Steve Scherf et al.
# Submitted via: CDex 1.51
#
DISCID=5e081d07
DTITLE=Martin Müller - Rua Baden Powell
DYEAR=2003
DGENRE=Jazz
TTITLE0=Agua de beber
TTITLE1=Berimbau
TTITLE2=Samba de una nota
TTITLE3=Chovendo na roseira
TTITLE4=Manhia de Carneval
TTITLE5=Acapella in Acapulco
TTITLE6=Canto de ossanha
EXTD=YEAR: 2003
EXTT0=
EXTT1=
EXTT2=
EXTT3=
EXTT4=
EXTT5=
EXTT6=
PLAYORDER=
